<svg width="357" height="78" viewBox="0 0 357 78" fill="none" xmlns="http://www.w3.org/2000/svg">
<g clip-path="url(#clip0_27_115)">
<path d="M41.0713 11H342C344.209 11 346 12.7909 346 15V36.9287C346 37.9896 345.578 39.0077 344.828 39.7578L318.758 65.8281C318.008 66.5783 316.99 67 315.929 67H15C12.7909 67 11 65.2091 11 63V41.0713C11 40.0104 11.4217 38.9923 12.1719 38.2422L38.2422 12.1719C38.9923 11.4217 40.0104 11 41.0713 11Z" fill="url(#paint0_linear_27_115)" stroke="url(#paint1_linear_27_115)" stroke-width="2" stroke-linejoin="bevel"/>
<path d="M41.935 45.2712V37.6911L56.4733 41.4927L41.935 45.2712ZM71.7452 48.4508C70.5471 48.4738 69.2799 48.4508 68.9574 48.4508C68.2662 48.4047 68.2201 48.3586 68.1049 48.2434C67.9436 48.0821 67.8054 47.7596 67.8514 46.6536C67.8745 45.709 67.9897 45.6168 68.1279 45.5247C68.2662 45.4325 68.2431 45.4325 68.6809 45.3634C68.9113 45.3404 69.0956 45.3173 69.2569 45.2482C69.5794 45.133 69.7407 44.8335 69.8329 44.557C69.902 44.2575 69.8559 42.7138 69.8559 39.7186C69.8329 35.4792 69.902 35.2028 69.6946 34.8111C69.5103 34.4424 69.1186 34.3503 68.727 34.3042C68.197 34.2351 68.0818 34.1429 67.9666 33.9816C67.8284 33.7973 67.8284 33.8204 67.8284 32.6684C67.8284 31.7928 67.8284 31.7007 67.8514 31.6085C67.9666 31.332 68.1279 31.1938 68.3814 31.1247C68.8652 31.0786 73.4502 31.1016 73.8188 31.1247C74.2105 31.2168 74.3718 31.3781 74.4409 31.7007C74.487 31.908 74.4639 33.5669 74.4409 33.7512C74.3257 34.1199 74.1874 34.2581 73.5423 34.3272C73.1506 34.3733 72.759 34.5576 72.5977 34.9724C72.4364 35.341 72.4825 35.6405 72.4825 39.926C72.4825 44.2575 72.3673 44.4879 72.6438 44.8796C72.8281 45.1791 73.1506 45.2943 73.4962 45.3404C74.0492 45.4095 74.1183 45.4786 74.2566 45.6629C74.3718 45.8242 74.4178 45.8242 74.4409 46.6997C74.4409 47.5292 74.3948 47.9208 74.3257 48.0821C74.2796 48.1743 74.0953 48.3586 73.9801 48.4047C73.8879 48.4277 73.957 48.4508 71.7452 48.4508ZM79.901 48.4738C79.4863 48.4738 79.0255 48.4508 78.9794 48.4508C78.8872 48.4277 78.772 48.4047 78.749 48.3816C78.6799 48.3586 78.4956 48.1743 78.4495 48.0591L78.4034 47.9208V39.9029C78.4034 32.0693 78.4264 31.7237 78.4495 31.7237C78.5186 31.4703 78.6568 31.332 79.0716 31.286C79.348 31.2629 81.8364 31.2629 82.0898 31.286C82.5045 31.3551 82.6658 31.4703 82.8732 31.9541C82.9653 32.1154 83.8639 34.4424 84.8776 37.092C85.9144 39.7877 86.8591 42.1608 86.9973 42.4604C87.1125 42.7599 87.3199 43.6124 87.942 43.3589C88.564 43.0824 88.3336 42.5295 88.3567 37.1381C88.3567 32.6453 88.3797 31.7698 88.4028 31.6546C88.4949 31.4472 88.6562 31.309 88.9788 31.2399C89.2322 31.2168 90.4072 31.2168 90.5916 31.2629C91.0063 31.3551 91.0984 31.4472 91.1676 31.862C91.1906 32.1384 91.1906 34.8111 91.1906 40.0412C91.1906 46.838 91.1676 47.8978 91.1445 48.036C91.0754 48.1743 90.868 48.3586 90.7528 48.4047C90.6376 48.4508 90.5685 48.4508 88.9096 48.4508C87.4581 48.4508 87.3199 48.4508 87.2508 48.4047C86.9743 48.3125 86.8591 48.2204 86.6517 47.7365C86.5135 47.414 83.334 39.2117 82.781 37.7372C82.6197 37.3224 82.4124 36.7695 82.228 36.5391C82.1589 36.47 81.7442 36.2165 81.4908 36.493C81.3525 36.6312 81.3295 36.7464 81.3064 36.8847C81.2143 37.2303 81.2373 38.7279 81.2373 42.5986L81.2143 47.9208L81.1682 48.0591C81.0991 48.1973 80.9378 48.3586 80.7765 48.4047C80.7074 48.4277 80.5922 48.4508 79.901 48.4738ZM99.0152 48.4508C97.8171 48.4738 96.5499 48.4508 96.2274 48.4508C95.5362 48.4047 95.4901 48.3586 95.3749 48.2434C95.2136 48.0821 95.0754 47.7596 95.1214 46.6536C95.1445 45.709 95.2597 45.6168 95.3979 45.5247C95.5362 45.4325 95.5131 45.4325 95.9509 45.3634C96.1813 45.3404 96.3656 45.3173 96.5269 45.2482C96.8494 45.133 97.0107 44.8335 97.1029 44.557C97.172 44.2575 97.1259 42.7138 97.1259 39.7186C97.1029 35.4792 97.172 35.2028 96.9646 34.8111C96.7803 34.4424 96.3886 34.3503 95.997 34.3042C95.467 34.2351 95.3518 34.1429 95.2366 33.9816C95.0984 33.7973 95.0984 33.8204 95.0984 32.6684C95.0984 31.7928 95.0984 31.7007 95.1214 31.6085C95.2366 31.332 95.3979 31.1938 95.6514 31.1247C96.1352 31.0786 100.72 31.1016 101.089 31.1247C101.48 31.2168 101.642 31.3781 101.711 31.7007C101.757 31.908 101.734 33.5669 101.711 33.7512C101.596 34.1199 101.457 34.2581 100.812 34.3272C100.421 34.3733 100.029 34.5576 99.8677 34.9724C99.7064 35.341 99.7525 35.6405 99.7525 39.926C99.7525 44.2575 99.6373 44.4879 99.9138 44.8796C100.098 45.1791 100.421 45.2943 100.766 45.3404C101.319 45.4095 101.388 45.4786 101.527 45.6629C101.642 45.8242 101.688 45.8242 101.711 46.6997C101.711 47.5292 101.665 47.9208 101.596 48.0821C101.55 48.1743 101.365 48.3586 101.25 48.4047C101.158 48.4277 101.227 48.4508 99.0152 48.4508ZM112.954 48.3356C112.862 48.4047 112.309 48.5199 111.825 48.4738C111.71 48.4508 111.503 48.4047 111.456 48.3816C111.364 48.3586 111.18 48.1512 111.134 48.013C111.134 48.013 111.088 47.7826 111.065 41.5388C111.042 35.4562 111.134 35.1797 110.95 34.765C110.673 34.2351 110.397 34.2581 108.438 34.2351C106.088 34.212 106.203 34.189 105.973 34.0738C105.835 33.9816 105.789 33.9125 105.719 33.7052C105.673 33.5669 105.673 33.4748 105.673 32.6914C105.65 31.7698 105.673 31.7237 105.789 31.4933C105.812 31.4472 105.973 31.309 106.134 31.2399L106.272 31.1708H118.069L118.207 31.2168C118.438 31.332 118.576 31.4472 118.622 31.9311C118.668 32.2997 118.668 33.2674 118.622 33.5208C118.576 33.9125 118.438 34.0738 118.138 34.166C118.023 34.212 117.977 34.212 115.88 34.2351C114.037 34.2581 113.922 34.189 113.622 34.4194C113.092 34.788 113.254 34.9724 113.231 41.5388V47.8748L113.184 48.013C113.115 48.1743 113.023 48.2895 112.954 48.3356ZM126.51 48.4508C125.312 48.4738 124.045 48.4508 123.722 48.4508C123.031 48.4047 122.985 48.3586 122.87 48.2434C122.709 48.0821 122.57 47.7596 122.616 46.6536C122.639 45.709 122.755 45.6168 122.893 45.5247C123.031 45.4325 123.008 45.4325 123.446 45.3634C123.676 45.3404 123.861 45.3173 124.022 45.2482C124.344 45.133 124.506 44.8335 124.598 44.557C124.667 44.2575 124.621 42.7138 124.621 39.7186C124.598 35.4792 124.667 35.2028 124.46 34.8111C124.275 34.4424 123.884 34.3503 123.492 34.3042C122.962 34.2351 122.847 34.1429 122.732 33.9816C122.593 33.7973 122.593 33.8204 122.593 32.6684C122.593 31.7928 122.593 31.7007 122.616 31.6085C122.732 31.332 122.893 31.1938 123.146 31.1247C123.63 31.0786 128.215 31.1016 128.584 31.1247C128.975 31.2168 129.137 31.3781 129.206 31.7007C129.252 31.908 129.229 33.5669 129.206 33.7512C129.091 34.1199 128.952 34.2581 128.307 34.3272C127.916 34.3733 127.524 34.5576 127.363 34.9724C127.201 35.341 127.247 35.6405 127.247 39.926C127.247 44.2575 127.132 44.4879 127.409 44.8796C127.593 45.1791 127.916 45.2943 128.261 45.3404C128.814 45.4095 128.883 45.4786 129.022 45.6629C129.137 45.8242 129.183 45.8242 129.206 46.6997C129.206 47.5292 129.16 47.9208 129.091 48.0821C129.045 48.1743 128.86 48.3586 128.745 48.4047C128.653 48.4277 128.722 48.4508 126.51 48.4508ZM133.883 30.9634C134.044 30.9634 134.735 30.9404 135.749 30.9404C138.698 30.9404 144.619 30.9864 145.195 31.0095C145.702 31.0325 145.817 31.1247 145.956 31.2629C146.002 31.309 146.094 31.4703 146.094 31.4933C146.117 31.6085 146.14 32.6223 146.14 39.5573C146.117 44.2805 146.117 47.46 146.094 47.7596C146.002 48.2664 145.91 48.4508 144.435 48.4047C143.721 48.3816 143.675 48.3586 143.467 48.2204C143.421 48.1973 143.283 48.013 143.237 47.6904C143.237 47.5983 143.214 46.7688 143.214 45.9855C143.214 44.534 143.26 44.2344 142.983 43.8658C142.661 43.4511 142.454 43.5202 139.85 43.5432C138.422 43.5432 137.246 43.5432 137.039 43.5893C136.74 43.6354 136.394 43.7736 136.279 44.1884C136.187 44.4648 136.21 45.133 136.21 46.1237C136.187 47.7596 136.164 47.8056 136.118 47.9439C136.025 48.2664 135.887 48.4047 135.357 48.4508C134.873 48.4968 134.159 48.4968 133.883 48.4508C133.537 48.4047 133.376 48.2664 133.261 48.013L133.214 47.8517L133.168 44.7413C133.168 42.9903 133.145 39.2808 133.168 36.516V31.5624L133.214 31.4242C133.33 31.1708 133.537 31.0095 133.883 30.9634ZM142.684 34.2581C142.454 34.1429 142.292 34.166 141.255 34.166C140.887 34.166 140.426 34.166 139.827 34.166C138.398 34.166 137.246 34.166 137.039 34.212C136.74 34.2581 136.44 34.4194 136.325 34.765C136.141 35.2258 136.164 38.8431 136.233 39.4191C136.279 39.7877 136.417 40.1333 136.74 40.2946C137.039 40.4328 137.223 40.3868 139.251 40.4098C142.108 40.4559 142.338 40.502 142.707 40.2946C142.868 40.2024 143.006 40.0642 143.076 39.8799C143.237 39.5343 143.191 39.4191 143.191 37.2764C143.168 34.9263 143.237 34.5576 142.684 34.2581ZM157.347 48.3356C157.254 48.4047 156.701 48.5199 156.218 48.4738C156.102 48.4508 155.895 48.4047 155.849 48.3816C155.757 48.3586 155.572 48.1512 155.526 48.013C155.526 48.013 155.48 47.7826 155.457 41.5388C155.434 35.4562 155.526 35.1797 155.342 34.765C155.066 34.2351 154.789 34.2581 152.831 34.2351C150.481 34.212 150.596 34.189 150.365 34.0738C150.227 33.9816 150.181 33.9125 150.112 33.7052C150.066 33.5669 150.066 33.4748 150.066 32.6914C150.043 31.7698 150.066 31.7237 150.181 31.4933C150.204 31.4472 150.365 31.309 150.527 31.2399L150.665 31.1708H162.461L162.6 31.2168C162.83 31.332 162.968 31.4472 163.014 31.9311C163.06 32.2997 163.06 33.2674 163.014 33.5208C162.968 33.9125 162.83 34.0738 162.531 34.166C162.415 34.212 162.369 34.212 160.273 34.2351C158.429 34.2581 158.314 34.189 158.015 34.4194C157.485 34.788 157.646 34.9724 157.623 41.5388V47.8748L157.577 48.013C157.508 48.1743 157.416 48.2895 157.347 48.3356ZM176.824 48.4047C176.225 48.4508 168.276 48.4968 167.815 48.4738C167.355 48.4277 167.193 48.2895 167.078 47.99C167.055 47.9439 167.032 47.7596 167.009 47.3909C166.986 47.1144 166.963 43.7736 166.986 39.3039C166.986 32.9218 167.009 31.7698 167.032 31.6316C167.124 31.309 167.285 31.1708 167.539 31.0786C167.585 31.0786 167.838 31.0325 171.64 31.0325C175.764 31.0556 176.939 31.1247 177.054 31.1477C177.17 31.1938 177.377 31.4012 177.4 31.4703C177.469 31.6085 177.538 32.0002 177.515 32.6684C177.515 33.6591 177.423 33.8664 177.285 34.0047C177.17 34.1199 177.077 34.166 176.64 34.212C176.455 34.2351 175.119 34.2581 173.737 34.2581C172.469 34.2581 171.294 34.2581 171.041 34.2812C170.811 34.3042 170.557 34.2812 170.327 34.5346C169.981 34.9263 170.05 35.4332 170.05 36.1935C170.05 37.069 170.027 37.2533 170.165 37.5528C170.235 37.6911 170.304 37.8293 170.442 37.9445C170.718 38.1749 170.834 38.1058 172.515 38.1288C173.714 38.1288 174.29 38.1749 174.359 38.1749C174.727 38.2901 174.866 38.4284 174.912 38.8892C174.958 39.1196 174.958 40.3637 174.912 40.5941C174.866 41.0549 174.727 41.1932 174.359 41.3084C174.29 41.3084 173.714 41.3314 172.515 41.3544C170.834 41.3775 170.718 41.3084 170.419 41.5388C170.304 41.654 170.235 41.7692 170.165 41.9304C170.05 42.2069 170.05 42.3912 170.05 43.2898C170.05 44.0501 169.981 44.534 170.304 44.9256C170.534 45.2021 170.811 45.1791 171.041 45.2021C171.294 45.2252 172.469 45.2252 173.737 45.2252C176.501 45.2252 176.962 45.2943 177.1 45.3634C177.4 45.5016 177.561 45.6399 177.515 47.0684C177.492 47.6674 177.492 47.7826 177.446 47.9208C177.354 48.1973 177.216 48.3356 176.824 48.4047ZM190.196 31.286C190.657 31.2629 194.758 31.2168 197.8 31.2168C199.689 31.2168 201.486 31.2399 201.624 31.2399C202.108 31.286 202.154 31.332 202.269 31.4472C202.385 31.5624 202.431 31.6316 202.477 32.0924C202.5 32.5762 202.5 39.9951 202.477 40.4789C202.431 40.9858 202.361 41.0549 202.246 41.1471C202.154 41.2162 202.131 41.2392 202.131 41.2392C202.085 41.2623 201.348 41.3084 197.523 41.3314C193.583 41.3544 193.353 41.2623 193.007 41.4696C192.869 41.5618 192.754 41.654 192.662 41.8383C192.477 42.1839 192.546 42.3221 192.523 45.0639C192.5 46.9992 192.477 47.8287 192.477 47.9669C192.385 48.2434 192.316 48.3125 192.04 48.4047C191.924 48.4508 191.809 48.4508 191.21 48.4738C190.772 48.4738 190.381 48.4508 190.312 48.4508C190.058 48.4047 189.897 48.3125 189.828 48.2204C189.713 48.0821 189.666 48.0591 189.643 47.5292C189.643 47.3448 189.62 43.6354 189.643 39.4421C189.643 32.6684 189.689 31.7928 189.713 31.7237V31.7007C189.782 31.4703 189.966 31.332 190.196 31.286ZM198.952 34.2812C198.698 34.212 198.376 34.2351 197.293 34.2351C196.924 34.2351 196.486 34.2351 195.979 34.2351H193.169L192.938 34.3964C192.546 34.6728 192.546 35.0645 192.523 36.1244C192.523 37.2994 192.477 37.5989 192.754 37.9445C193.099 38.4053 193.33 38.3132 196.141 38.3132C198.698 38.3132 198.79 38.3592 199.113 38.1749C199.274 38.0828 199.389 37.9676 199.481 37.7832C199.62 37.5068 199.597 37.3224 199.597 36.3087C199.597 35.6636 199.62 35.2258 199.574 34.9724C199.481 34.6268 199.228 34.3733 198.952 34.2812ZM207.12 31.1477C207.235 31.1247 208.042 31.1247 209.148 31.1247C212.212 31.1247 218.295 31.1708 218.732 31.2168C219.147 31.286 219.262 31.4242 219.331 31.862C219.377 32.3458 219.377 40.2255 219.331 40.6632C219.262 41.0549 219.17 41.1471 218.917 41.2623C218.824 41.2853 218.801 41.3084 217.304 41.3314C216.06 41.3544 215.829 41.3314 215.576 41.4696C215.23 41.6309 215.115 42.0687 215.207 42.4143C215.276 42.7138 215.345 42.806 216.866 45.6399C218.087 47.6904 218.133 47.8287 218.156 48.013C218.179 48.2434 218.179 48.1973 218.064 48.2895C217.903 48.4508 217.972 48.4508 216.82 48.4508C215.829 48.4508 215.852 48.4508 215.645 48.2895C215.507 48.1743 215.276 47.8517 214.585 46.4002C214.239 45.6629 213.663 44.4418 213.318 43.7276C212.535 42.0917 212.511 42.0226 212.304 41.7922C211.982 41.4236 211.636 41.4005 210.899 41.4005C210.184 41.4005 209.793 41.4466 209.539 41.9304C209.378 42.2991 209.424 42.3682 209.401 45.156V47.9208L209.332 48.0591C209.286 48.2204 209.171 48.3586 208.986 48.4508C208.848 48.4968 208.917 48.4968 207.973 48.4968C207.281 48.5199 206.982 48.4968 206.959 48.4738C206.659 48.3816 206.567 48.3125 206.452 48.036L206.406 47.9208V39.972C206.383 34.3272 206.406 32.0232 206.429 31.7468C206.498 31.332 206.659 31.2168 207.12 31.1477ZM216.29 34.788C216.06 34.3042 215.829 34.2812 213.986 34.2812C213.687 34.2812 213.364 34.2812 212.995 34.2812C210.461 34.2812 210.323 34.2351 210 34.3733C209.816 34.4655 209.631 34.6268 209.539 34.8111C209.424 35.1106 209.424 35.2719 209.424 36.2626C209.424 37.2072 209.401 37.3916 209.539 37.668C209.631 37.8063 209.701 37.9215 209.816 38.0136C210.115 38.2671 210.254 38.198 211.82 38.221C214.378 38.244 215.53 38.3132 215.875 38.1519C216.06 38.0597 216.175 37.9445 216.267 37.7832C216.428 37.4837 216.405 37.3224 216.405 36.2626C216.405 35.2719 216.428 35.0876 216.29 34.788ZM229.593 31.286C230.607 31.286 231.483 31.286 232.197 31.286C234.34 31.286 235.399 31.309 235.561 31.309C235.906 31.3781 236.021 31.4933 236.091 31.8389C236.114 32.2536 236.137 35.4101 236.137 39.926L236.16 47.8287L236.091 48.013C236.021 48.1973 235.883 48.3586 235.722 48.4047V48.4277C235.607 48.4277 234.685 48.4508 229.847 48.4508C225.423 48.4738 224.041 48.4508 223.902 48.4277C223.557 48.3586 223.465 48.2664 223.373 48.0591C223.349 48.013 223.326 47.8978 223.303 47.5522C223.28 47.3448 223.28 43.6354 223.303 39.4191L223.326 31.8389L223.396 31.7007C223.442 31.5164 223.534 31.4242 223.718 31.3551L223.856 31.309L229.593 31.286ZM232.75 34.3964C232.427 34.212 232.335 34.2812 229.709 34.2812C227.059 34.2812 226.99 34.212 226.667 34.3964C226.506 34.4885 226.368 34.6728 226.299 34.8111C226.091 35.2488 226.16 35.2949 226.16 39.7416C226.16 42.9672 226.137 44.2805 226.206 44.6031C226.229 44.7644 226.253 44.9487 226.414 45.11C226.782 45.4786 226.898 45.4325 229.755 45.4095C232.312 45.4095 232.496 45.5016 232.842 45.2712C232.98 45.156 233.049 45.0639 233.118 44.9026C233.326 44.5109 233.234 44.2805 233.234 39.8338C233.234 35.1567 233.349 35.1106 233.095 34.7189C232.98 34.5576 232.888 34.4885 232.75 34.3964ZM247.347 48.3356C247.254 48.4047 246.701 48.5199 246.218 48.4738C246.102 48.4508 245.895 48.4047 245.849 48.3816C245.757 48.3586 245.572 48.1512 245.526 48.013C245.526 48.013 245.48 47.7826 245.457 41.5388C245.434 35.4562 245.526 35.1797 245.342 34.765C245.066 34.2351 244.789 34.2581 242.831 34.2351C240.481 34.212 240.596 34.189 240.365 34.0738C240.227 33.9816 240.181 33.9125 240.112 33.7052C240.066 33.5669 240.066 33.4748 240.066 32.6914C240.043 31.7698 240.066 31.7237 240.181 31.4933C240.204 31.4472 240.365 31.309 240.527 31.2399L240.665 31.1708H252.461L252.6 31.2168C252.83 31.332 252.968 31.4472 253.014 31.9311C253.06 32.2997 253.06 33.2674 253.014 33.5208C252.968 33.9125 252.83 34.0738 252.531 34.166C252.415 34.212 252.369 34.212 250.273 34.2351C248.429 34.2581 248.314 34.189 248.015 34.4194C247.485 34.788 247.646 34.9724 247.623 41.5388V47.8748L247.577 48.013C247.508 48.1743 247.416 48.2895 247.347 48.3356ZM263.276 31.286C264.29 31.286 265.165 31.286 265.879 31.286C268.022 31.286 269.082 31.309 269.243 31.309C269.589 31.3781 269.704 31.4933 269.773 31.8389C269.796 32.2536 269.819 35.4101 269.819 39.926L269.842 47.8287L269.773 48.013C269.704 48.1973 269.566 48.3586 269.404 48.4047V48.4277C269.289 48.4277 268.368 48.4508 263.529 48.4508C259.106 48.4738 257.723 48.4508 257.585 48.4277C257.239 48.3586 257.147 48.2664 257.055 48.0591C257.032 48.013 257.009 47.8978 256.986 47.5522C256.963 47.3448 256.963 43.6354 256.986 39.4191L257.009 31.8389L257.078 31.7007C257.124 31.5164 257.216 31.4242 257.401 31.3551L257.539 31.309L263.276 31.286ZM266.432 34.3964C266.11 34.212 266.018 34.2812 263.391 34.2812C260.741 34.2812 260.672 34.212 260.35 34.3964C260.188 34.4885 260.05 34.6728 259.981 34.8111C259.774 35.2488 259.843 35.2949 259.843 39.7416C259.843 42.9672 259.82 44.2805 259.889 44.6031C259.912 44.7644 259.935 44.9487 260.096 45.11C260.465 45.4786 260.58 45.4325 263.437 45.4095C265.995 45.4095 266.179 45.5016 266.524 45.2712C266.663 45.156 266.732 45.0639 266.801 44.9026C267.008 44.5109 266.916 44.2805 266.916 39.8338C266.916 35.1567 267.031 35.1106 266.778 34.7189C266.663 34.5576 266.571 34.4885 266.432 34.3964ZM283.517 48.4738C282.895 48.4968 274.946 48.4968 274.486 48.4738C274.025 48.4047 273.91 48.2895 273.818 48.013C273.794 47.8056 273.771 46.4693 273.748 39.9951C273.725 34.6728 273.725 32.1154 273.748 31.862C273.818 31.5164 273.91 31.4012 274.186 31.286L274.324 31.2168L278.633 31.1938C281.121 31.1708 283.126 31.1938 283.31 31.1938C283.633 31.2168 283.702 31.2399 283.771 31.286C283.932 31.3551 284.047 31.4933 284.116 31.7007C284.162 31.862 284.162 31.885 284.162 32.8296L284.139 33.7512L284.093 33.8895C283.955 34.189 283.863 34.2581 283.425 34.3272C283.287 34.3503 281.997 34.3503 280.154 34.3503C277.227 34.3503 277.066 34.2812 276.79 34.8572C276.605 35.2488 276.674 35.2949 276.651 39.6956C276.651 42.1839 276.651 44.2114 276.674 44.4418C276.698 44.7644 276.836 45.11 277.112 45.2712C277.412 45.4556 277.504 45.3864 280.246 45.4095C284.07 45.4095 283.679 45.4095 283.909 45.6399C284.093 45.8012 284.093 45.686 284.116 46.861C284.139 47.7826 284.116 47.7826 284.07 47.9669C283.978 48.2895 283.817 48.4047 283.517 48.4738ZM294.371 31.286C295.385 31.286 296.26 31.286 296.974 31.286C299.117 31.286 300.177 31.309 300.338 31.309C300.684 31.3781 300.799 31.4933 300.868 31.8389C300.891 32.2536 300.914 35.4101 300.914 39.926L300.937 47.8287L300.868 48.013C300.799 48.1973 300.661 48.3586 300.499 48.4047V48.4277C300.384 48.4277 299.463 48.4508 294.624 48.4508C290.201 48.4738 288.818 48.4508 288.68 48.4277C288.334 48.3586 288.242 48.2664 288.15 48.0591C288.127 48.013 288.104 47.8978 288.081 47.5522C288.058 47.3448 288.058 43.6354 288.081 39.4191L288.104 31.8389L288.173 31.7007C288.219 31.5164 288.311 31.4242 288.496 31.3551L288.634 31.309L294.371 31.286ZM297.527 34.3964C297.205 34.212 297.113 34.2812 294.486 34.2812C291.836 34.2812 291.767 34.212 291.445 34.3964C291.283 34.4885 291.145 34.6728 291.076 34.8111C290.869 35.2488 290.938 35.2949 290.938 39.7416C290.938 42.9672 290.915 44.2805 290.984 44.6031C291.007 44.7644 291.03 44.9487 291.191 45.11C291.56 45.4786 291.675 45.4325 294.532 45.4095C297.09 45.4095 297.274 45.5016 297.619 45.2712C297.758 45.156 297.827 45.0639 297.896 44.9026C298.103 44.5109 298.011 44.2805 298.011 39.8338C298.011 35.1567 298.126 35.1106 297.873 34.7189C297.758 34.5576 297.666 34.4885 297.527 34.3964ZM314.497 48.3586C313.967 48.4277 306.088 48.4047 305.419 48.3586C305.166 48.2895 305.005 48.1052 304.913 47.9208C304.866 47.5752 304.843 45.0869 304.843 38.6127C304.82 34.2581 304.843 31.9311 304.866 31.7007C304.936 31.2399 305.051 31.1247 305.281 31.0325C305.396 30.9864 305.396 30.9634 306.18 30.9634C307.124 30.9404 307.263 30.9864 307.447 31.0786C307.608 31.1477 307.677 31.2399 307.746 31.4933C307.769 31.6085 307.793 32.5071 307.793 37.9215C307.793 44.4648 307.654 44.58 308.046 44.9948C308.392 45.3173 308.461 45.2712 311.41 45.2712C315.211 45.3173 314.774 45.3173 314.981 45.4786C315.096 45.5938 315.165 45.709 315.211 45.9855C315.234 46.1928 315.234 47.4831 315.211 47.6904C315.119 48.1743 315.004 48.2895 314.497 48.3586Z" fill="#010000"/>
</g>
<defs>
<linearGradient id="paint0_linear_27_115" x1="10" y1="39" x2="347" y2="39" gradientUnits="userSpaceOnUse">
<stop stop-color="#E6AB27"/>
<stop offset="1" stop-color="#A1740F"/>
</linearGradient>
<linearGradient id="paint1_linear_27_115" x1="10" y1="39" x2="347" y2="39" gradientUnits="userSpaceOnUse">
<stop stop-color="#AFAFAF"/>
<stop offset="1" stop-color="#C7C7C7"/>
</linearGradient>
<clipPath id="clip0_27_115">
<rect width="357" height="78" fill="white"/>
</clipPath>
</defs>
</svg>
