<svg width="220" height="49" viewBox="0 0 220 49" fill="none" xmlns="http://www.w3.org/2000/svg">
<g clip-path="url(#clip0_179_833)">
<path d="M25.288 6.77222H210.57C211.93 6.77222 213.033 7.87511 213.033 9.23511V22.7371C213.033 23.3902 212.773 24.0164 212.311 24.4783L196.26 40.531C195.798 40.9927 195.171 41.2517 194.518 41.2517H9.23523C7.87523 41.2515 6.77234 40.1489 6.77234 38.7888V25.2878C6.77234 24.6347 7.03215 24.0075 7.49402 23.5457L23.5458 7.4939C24.0076 7.03203 24.6348 6.77222 25.288 6.77222Z" fill="url(#paint0_linear_179_833)" stroke="url(#paint1_linear_179_833)" stroke-width="1.2314" stroke-linejoin="bevel"/>
<path d="M56.8781 30.3413C56.793 30.3555 55.9844 30.3555 51.9273 30.3413C49.4873 30.3271 49.6008 30.3129 49.4873 30.2562C49.4448 30.2278 49.3455 30.1285 49.3313 30.0576C49.2745 29.9441 49.2462 29.5469 49.2604 27.6602C49.2604 25.887 49.2745 25.887 49.2887 25.8728C49.3597 25.6884 49.4164 25.6458 49.6008 25.5891C49.7001 25.5749 50.5229 25.5465 50.6789 25.5607C50.9768 25.6033 51.0478 25.6884 51.1045 25.887C51.1329 26.0146 51.1329 25.9863 51.1329 26.8942C51.1329 27.7595 51.1187 27.8446 51.218 28.0432C51.2747 28.1567 51.3882 28.2702 51.5017 28.3127C51.6861 28.3837 51.7996 28.3695 53.2749 28.3553C54.3247 28.3411 54.8354 28.3553 55.0056 28.2986C55.19 28.2418 55.3319 28.0574 55.3744 27.8588C55.4028 27.6602 55.3886 26.653 55.3744 23.8726C55.3461 19.6027 55.3602 19.9289 55.4454 19.7587C55.4879 19.6878 55.5872 19.6027 55.6723 19.5743C55.7858 19.5459 56.0837 19.5176 56.4384 19.5176C57.0058 19.5176 57.1193 19.5885 57.2328 19.702C57.3037 19.7871 57.3321 19.858 57.3604 19.9857C57.3746 20.0566 57.3746 20.6382 57.3746 21.5461C57.3604 22.3689 57.3463 24.5677 57.3321 26.426C57.3179 28.3837 57.3037 29.7881 57.2895 29.9299C57.247 30.1853 57.1335 30.2846 56.8781 30.3413ZM63.6616 19.7587C64.2858 19.7587 64.8248 19.7587 65.2646 19.7587C66.5839 19.7587 67.2364 19.7729 67.3357 19.7729C67.5485 19.8155 67.6194 19.8864 67.662 20.0992C67.6762 20.3545 67.6903 22.298 67.6903 25.0784L67.7045 29.9441L67.662 30.0576C67.6194 30.1711 67.5343 30.2704 67.435 30.2988V30.3129C67.3641 30.3129 66.7966 30.3271 63.8176 30.3271C61.094 30.3413 60.2428 30.3271 60.1577 30.3129C59.9449 30.2704 59.8882 30.2136 59.8314 30.086C59.8172 30.0576 59.803 29.9867 59.7889 29.7739C59.7747 29.6462 59.7747 27.3623 59.7889 24.7663L59.803 20.0992L59.8456 20.0141C59.874 19.9006 59.9307 19.8438 60.0442 19.8013L60.1293 19.7729L63.6616 19.7587ZM65.605 21.6738C65.4064 21.5603 65.3497 21.6029 63.7325 21.6029C62.1011 21.6029 62.0586 21.5603 61.86 21.6738C61.7607 21.7305 61.6756 21.844 61.633 21.9291C61.5053 22.1987 61.5479 22.227 61.5479 24.9649C61.5479 26.9509 61.5337 27.7595 61.5763 27.9581C61.5905 28.0574 61.6046 28.1709 61.7039 28.2702C61.9309 28.4972 62.0018 28.4688 63.7609 28.4546C65.3355 28.4546 65.449 28.5113 65.6618 28.3695C65.7469 28.2986 65.7894 28.2418 65.832 28.1425C65.9597 27.9014 65.9029 27.7595 65.9029 25.0216C65.9029 22.1419 65.9739 22.1136 65.8178 21.8724C65.7469 21.7731 65.6901 21.7305 65.605 21.6738ZM72.5212 30.3271C71.7835 30.3413 71.0033 30.3271 70.8047 30.3271C70.3791 30.2988 70.3507 30.2704 70.2798 30.1995C70.1805 30.1002 70.0954 29.9016 70.1238 29.2206C70.1379 28.639 70.2089 28.5823 70.294 28.5255C70.3791 28.4688 70.3649 28.4688 70.6344 28.4262C70.7763 28.412 70.8898 28.3979 70.9891 28.3553C71.1877 28.2844 71.287 28.1 71.3437 27.9297C71.3863 27.7453 71.3579 26.7949 71.3579 24.9507C71.3437 22.3405 71.3863 22.1703 71.2586 21.9291C71.1451 21.7022 70.904 21.6454 70.6628 21.6171C70.3365 21.5745 70.2656 21.5178 70.1947 21.4185C70.1096 21.305 70.1096 21.3192 70.1096 20.6099C70.1096 20.0708 70.1096 20.0141 70.1238 19.9573C70.1947 19.7871 70.294 19.702 70.45 19.6594C70.7479 19.631 73.5709 19.6452 73.7979 19.6594C74.039 19.7162 74.1383 19.8155 74.1809 20.0141C74.2093 20.1417 74.1951 21.1631 74.1809 21.2766C74.11 21.5036 74.0248 21.5887 73.6276 21.6312C73.3865 21.6596 73.1453 21.7731 73.046 22.0284C72.9467 22.2554 72.9751 22.4398 72.9751 25.0784C72.9751 27.7453 72.9042 27.8872 73.0744 28.1283C73.1879 28.3127 73.3865 28.3837 73.5993 28.412C73.9397 28.4546 73.9823 28.4972 74.0674 28.6106C74.1383 28.7099 74.1667 28.7099 74.1809 29.249C74.1809 29.7597 74.1525 30.0009 74.11 30.1002C74.0816 30.1569 73.9681 30.2704 73.8972 30.2988C73.8404 30.3129 73.883 30.3271 72.5212 30.3271ZM77.5427 30.3413C77.2874 30.3413 77.0036 30.3271 76.9753 30.3271C76.9185 30.3129 76.8476 30.2988 76.8334 30.2846C76.7909 30.2704 76.6774 30.1569 76.649 30.086L76.6206 30.0009V25.0642C76.6206 20.241 76.6348 20.0282 76.649 20.0282C76.6916 19.8722 76.7767 19.7871 77.032 19.7587C77.2022 19.7445 78.7343 19.7445 78.8903 19.7587C79.1457 19.8013 79.245 19.8722 79.3727 20.1701C79.4294 20.2694 79.9827 21.7022 80.6068 23.3335C81.2452 24.9933 81.8268 26.4544 81.9119 26.6388C81.9828 26.8232 82.1105 27.3481 82.4935 27.1921C82.8766 27.0218 82.7347 26.6814 82.7489 23.3619C82.7489 20.5957 82.7631 20.0566 82.7773 19.9857C82.834 19.858 82.9333 19.7729 83.1319 19.7303C83.2879 19.7162 84.0114 19.7162 84.1249 19.7445C84.3802 19.8013 84.437 19.858 84.4795 20.1134C84.4937 20.2836 84.4937 21.9291 84.4937 25.1493C84.4937 29.3341 84.4795 29.9867 84.4654 30.0718C84.4228 30.1569 84.2951 30.2704 84.2242 30.2988C84.1533 30.3271 84.1107 30.3271 83.0893 30.3271C82.1956 30.3271 82.1105 30.3271 82.068 30.2988C81.8977 30.242 81.8268 30.1853 81.6991 29.8874C81.614 29.6888 79.6564 24.6386 79.3159 23.7307C79.2166 23.4754 79.0889 23.1349 78.9755 22.9931C78.9329 22.9505 78.6776 22.7945 78.5215 22.9647C78.4364 23.0498 78.4222 23.1207 78.408 23.2059C78.3513 23.4186 78.3655 24.3407 78.3655 26.7239L78.3513 30.0009L78.3229 30.086C78.2804 30.1711 78.1811 30.2704 78.0818 30.2988C78.0392 30.3129 77.9683 30.3271 77.5427 30.3413ZM93.4741 30.2988C93.3039 30.3271 92.3534 30.3271 92.2683 30.3129C92.0839 30.2562 92.0413 30.2136 91.9846 30.015C91.9704 29.9725 91.9562 29.7313 91.9562 25.0216V20.1559L91.9846 20.0282C92.0272 19.8864 92.1123 19.8013 92.2116 19.7729C92.2683 19.7587 92.7932 19.7445 95.758 19.7303C97.8433 19.7303 99.2761 19.7445 99.4038 19.7445C99.7017 19.7871 99.7584 19.858 99.8151 20.0141C99.8293 20.0708 99.8435 20.6666 99.8577 24.9507C99.8577 28.4262 99.8577 29.8306 99.8435 29.9725C99.801 30.1995 99.7158 30.2846 99.4889 30.3271C99.4321 30.3271 99.191 30.3413 98.8789 30.3413C98.4391 30.3271 98.4249 30.3129 98.3682 30.2988C98.2263 30.242 98.2263 30.242 98.1554 30.1143L98.1129 30.015L98.0987 22.071L98.0136 21.915C97.9284 21.7022 97.7298 21.6171 97.5312 21.5887C97.3185 21.5603 97.0205 21.5603 96.8361 21.6596C96.7226 21.7164 96.6659 21.7873 96.6233 21.8866L96.5382 22.0284L96.524 26.0714C96.5099 29.9016 96.4957 30.0576 96.4957 30.0576C96.4531 30.1569 96.368 30.2562 96.2971 30.2988C96.2261 30.3271 96.2545 30.3271 95.8857 30.3271C95.4459 30.3271 95.4601 30.3129 95.375 30.2278C95.3183 30.1711 95.2757 30.1002 95.2473 29.8874C95.2473 29.7597 95.2331 28.2844 95.2331 25.9153C95.2331 22.3547 95.2757 22.1845 95.1622 21.9291C95.0345 21.6454 94.7934 21.6029 94.4813 21.6029C94.2543 21.6029 94.1267 21.6029 93.999 21.688C93.6301 21.8724 93.7436 22.071 93.7294 26.0572C93.7294 30.2704 93.7011 30.0434 93.6585 30.1427C93.6443 30.1711 93.5308 30.2704 93.4741 30.2988ZM104.675 30.3271C103.937 30.3413 103.157 30.3271 102.958 30.3271C102.533 30.2988 102.504 30.2704 102.433 30.1995C102.334 30.1002 102.249 29.9016 102.277 29.2206C102.291 28.639 102.362 28.5823 102.447 28.5255C102.533 28.4688 102.518 28.4688 102.788 28.4262C102.93 28.412 103.043 28.3979 103.143 28.3553C103.341 28.2844 103.441 28.1 103.497 27.9297C103.54 27.7453 103.511 26.7949 103.511 24.9507C103.497 22.3405 103.54 22.1703 103.412 21.9291C103.299 21.7022 103.057 21.6454 102.816 21.6171C102.49 21.5745 102.419 21.5178 102.348 21.4185C102.263 21.305 102.263 21.3192 102.263 20.6099C102.263 20.0708 102.263 20.0141 102.277 19.9573C102.348 19.7871 102.447 19.702 102.604 19.6594C102.901 19.631 105.724 19.6452 105.951 19.6594C106.193 19.7162 106.292 19.8155 106.334 20.0141C106.363 20.1417 106.349 21.1631 106.334 21.2766C106.263 21.5036 106.178 21.5887 105.781 21.6312C105.54 21.6596 105.299 21.7731 105.2 22.0284C105.1 22.2554 105.129 22.4398 105.129 25.0784C105.129 27.7453 105.058 27.8872 105.228 28.1283C105.341 28.3127 105.54 28.3837 105.753 28.412C106.093 28.4546 106.136 28.4972 106.221 28.6106C106.292 28.7099 106.32 28.7099 106.334 29.249C106.334 29.7597 106.306 30.0009 106.263 30.1002C106.235 30.1569 106.122 30.2704 106.051 30.2988C105.994 30.3129 106.036 30.3271 104.675 30.3271ZM114.051 30.3413C112.845 30.3413 111.257 30.3413 110.533 30.3413C109.171 30.3271 109.044 30.2988 109.044 30.2988C108.902 30.242 108.817 30.1427 108.788 29.9441C108.76 29.8306 108.76 28.9653 108.774 28.8518C108.817 28.6532 108.902 28.5539 109.058 28.4972C109.058 28.4972 109.313 28.4688 111.838 28.4546C114.363 28.4404 114.406 28.483 114.619 28.3695C114.902 28.1993 114.917 27.9155 114.931 27.3056C114.931 26.7381 114.945 26.4828 114.831 26.2558C114.761 26.1281 114.704 26.0998 114.619 26.0572L114.491 25.9721L111.838 25.9579C109.2 25.9437 109.072 25.9153 109.072 25.9153C108.973 25.887 108.859 25.7735 108.831 25.7026L108.803 25.6174L108.788 22.9505C108.788 21.0638 108.788 20.2127 108.803 20.1134C108.845 19.9006 108.916 19.8296 109.115 19.7729C109.115 19.7587 109.455 19.7445 112.647 19.7303C114.831 19.7303 116.165 19.7303 116.278 19.7445C116.562 19.7871 116.647 19.8722 116.69 19.9999C116.747 20.1417 116.732 21.2057 116.676 21.3475C116.647 21.4326 116.576 21.5036 116.449 21.5603L116.364 21.5887L110.93 21.6171L110.817 21.7164C110.732 21.7873 110.689 21.844 110.647 21.9291C110.547 22.1136 110.562 22.227 110.562 22.837C110.562 23.4612 110.562 23.5747 110.632 23.7449C110.689 23.8584 110.774 23.9577 110.874 24.0145C111.086 24.1421 111.143 24.0854 113.682 24.0996L116.378 24.1138L116.463 24.1563C116.59 24.2131 116.661 24.2982 116.69 24.3833C116.69 24.3833 116.718 24.5819 116.718 27.1211C116.732 28.9227 116.718 29.859 116.704 29.9583C116.676 30.1853 116.619 30.242 116.434 30.3129L116.349 30.3413H114.051ZM124.441 30.3413C123.235 30.3413 121.647 30.3413 120.923 30.3413C119.561 30.3271 119.434 30.2988 119.434 30.2988C119.292 30.242 119.207 30.1427 119.178 29.9441C119.15 29.8306 119.15 28.9653 119.164 28.8518C119.207 28.6532 119.292 28.5539 119.448 28.4972C119.448 28.4972 119.703 28.4688 122.228 28.4546C124.753 28.4404 124.796 28.483 125.009 28.3695C125.292 28.1993 125.307 27.9155 125.321 27.3056C125.321 26.7381 125.335 26.4828 125.221 26.2558C125.151 26.1281 125.094 26.0998 125.009 26.0572L124.881 25.9721L122.228 25.9579C119.59 25.9437 119.462 25.9153 119.462 25.9153C119.363 25.887 119.249 25.7735 119.221 25.7026L119.192 25.6174L119.178 22.9505C119.178 21.0638 119.178 20.2127 119.192 20.1134C119.235 19.9006 119.306 19.8296 119.505 19.7729C119.505 19.7587 119.845 19.7445 123.037 19.7303C125.221 19.7303 126.555 19.7303 126.668 19.7445C126.952 19.7871 127.037 19.8722 127.08 19.9999C127.137 20.1417 127.122 21.2057 127.066 21.3475C127.037 21.4326 126.966 21.5036 126.839 21.5603L126.753 21.5887L121.32 21.6171L121.207 21.7164C121.122 21.7873 121.079 21.844 121.037 21.9291C120.937 22.1136 120.952 22.227 120.952 22.837C120.952 23.4612 120.952 23.5747 121.022 23.7449C121.079 23.8584 121.164 23.9577 121.264 24.0145C121.476 24.1421 121.533 24.0854 124.072 24.0996L126.768 24.1138L126.853 24.1563C126.98 24.2131 127.051 24.2982 127.08 24.3833C127.08 24.3833 127.108 24.5819 127.108 27.1211C127.122 28.9227 127.108 29.859 127.094 29.9583C127.066 30.1853 127.009 30.242 126.824 30.3129L126.739 30.3413H124.441ZM131.966 30.3271C131.228 30.3413 130.448 30.3271 130.249 30.3271C129.824 30.2988 129.795 30.2704 129.724 30.1995C129.625 30.1002 129.54 29.9016 129.568 29.2206C129.582 28.639 129.653 28.5823 129.738 28.5255C129.824 28.4688 129.809 28.4688 130.079 28.4262C130.221 28.412 130.334 28.3979 130.434 28.3553C130.632 28.2844 130.732 28.1 130.788 27.9297C130.831 27.7453 130.802 26.7949 130.802 24.9507C130.788 22.3405 130.831 22.1703 130.703 21.9291C130.59 21.7022 130.348 21.6454 130.107 21.6171C129.781 21.5745 129.71 21.5178 129.639 21.4185C129.554 21.305 129.554 21.3192 129.554 20.6099C129.554 20.0708 129.554 20.0141 129.568 19.9573C129.639 19.7871 129.738 19.702 129.895 19.6594C130.192 19.631 133.015 19.6452 133.242 19.6594C133.484 19.7162 133.583 19.8155 133.625 20.0141C133.654 20.1417 133.64 21.1631 133.625 21.2766C133.554 21.5036 133.469 21.5887 133.072 21.6312C132.831 21.6596 132.59 21.7731 132.491 22.0284C132.391 22.2554 132.42 22.4398 132.42 25.0784C132.42 27.7453 132.349 27.8872 132.519 28.1283C132.632 28.3127 132.831 28.3837 133.044 28.412C133.384 28.4546 133.427 28.4972 133.512 28.6106C133.583 28.7099 133.611 28.7099 133.625 29.249C133.625 29.7597 133.597 30.0009 133.554 30.1002C133.526 30.1569 133.413 30.2704 133.342 30.2988C133.285 30.3129 133.327 30.3271 131.966 30.3271ZM139.938 19.7587C140.562 19.7587 141.101 19.7587 141.541 19.7587C142.86 19.7587 143.513 19.7729 143.612 19.7729C143.825 19.8155 143.896 19.8864 143.938 20.0992C143.952 20.3545 143.967 22.298 143.967 25.0784L143.981 29.9441L143.938 30.0576C143.896 30.1711 143.811 30.2704 143.711 30.2988V30.3129C143.64 30.3129 143.073 30.3271 140.094 30.3271C137.37 30.3413 136.519 30.3271 136.434 30.3129C136.221 30.2704 136.164 30.2136 136.108 30.086C136.093 30.0576 136.079 29.9867 136.065 29.7739C136.051 29.6462 136.051 27.3623 136.065 24.7663L136.079 20.0992L136.122 20.0141C136.15 19.9006 136.207 19.8438 136.32 19.8013L136.406 19.7729L139.938 19.7587ZM141.881 21.6738C141.683 21.5603 141.626 21.6029 140.009 21.6029C138.377 21.6029 138.335 21.5603 138.136 21.6738C138.037 21.7305 137.952 21.844 137.909 21.9291C137.782 22.1987 137.824 22.227 137.824 24.9649C137.824 26.9509 137.81 27.7595 137.853 27.9581C137.867 28.0574 137.881 28.1709 137.98 28.2702C138.207 28.4972 138.278 28.4688 140.037 28.4546C141.612 28.4546 141.725 28.5113 141.938 28.3695C142.023 28.2986 142.066 28.2418 142.108 28.1425C142.236 27.9014 142.179 27.7595 142.179 25.0216C142.179 22.1419 142.25 22.1136 142.094 21.8724C142.023 21.7731 141.966 21.7305 141.881 21.6738ZM147.308 30.3413C147.053 30.3413 146.769 30.3271 146.74 30.3271C146.684 30.3129 146.613 30.2988 146.599 30.2846C146.556 30.2704 146.443 30.1569 146.414 30.086L146.386 30.0009V25.0642C146.386 20.241 146.4 20.0282 146.414 20.0282C146.457 19.8722 146.542 19.7871 146.797 19.7587C146.967 19.7445 148.5 19.7445 148.656 19.7587C148.911 19.8013 149.01 19.8722 149.138 20.1701C149.195 20.2694 149.748 21.7022 150.372 23.3335C151.01 24.9933 151.592 26.4544 151.677 26.6388C151.748 26.8232 151.876 27.3481 152.259 27.1921C152.642 27.0218 152.5 26.6814 152.514 23.3619C152.514 20.5957 152.528 20.0566 152.542 19.9857C152.599 19.858 152.699 19.7729 152.897 19.7303C153.053 19.7162 153.777 19.7162 153.89 19.7445C154.145 19.8013 154.202 19.858 154.245 20.1134C154.259 20.2836 154.259 21.9291 154.259 25.1493C154.259 29.3341 154.245 29.9867 154.231 30.0718C154.188 30.1569 154.06 30.2704 153.989 30.2988C153.918 30.3271 153.876 30.3271 152.855 30.3271C151.961 30.3271 151.876 30.3271 151.833 30.2988C151.663 30.242 151.592 30.1853 151.464 29.8874C151.379 29.6888 149.422 24.6386 149.081 23.7307C148.982 23.4754 148.854 23.1349 148.741 22.9931C148.698 22.9505 148.443 22.7945 148.287 22.9647C148.202 23.0498 148.187 23.1207 148.173 23.2059C148.117 23.4186 148.131 24.3407 148.131 26.7239L148.117 30.0009L148.088 30.086C148.046 30.1711 147.946 30.2704 147.847 30.2988C147.804 30.3129 147.733 30.3271 147.308 30.3413ZM161.239 28.3695V23.7024L170.19 26.043L161.239 28.3695Z" fill="#010000"/>
</g>
<defs>
<linearGradient id="paint0_linear_179_833" x1="6.1571" y1="24.0123" x2="213.649" y2="24.0123" gradientUnits="userSpaceOnUse">
<stop stop-color="#E6AB27"/>
<stop offset="1" stop-color="#A1740F"/>
</linearGradient>
<linearGradient id="paint1_linear_179_833" x1="6.1571" y1="24.0123" x2="213.649" y2="24.0123" gradientUnits="userSpaceOnUse">
<stop stop-color="#AFAFAF"/>
<stop offset="1" stop-color="#C7C7C7"/>
</linearGradient>
<clipPath id="clip0_179_833">
<rect width="219.806" height="48.0248" fill="white"/>
</clipPath>
</defs>
</svg>
