<svg width="532" height="164" viewBox="0 0 532 164" fill="none" xmlns="http://www.w3.org/2000/svg">
<mask id="path-1-inside-1_27_128" fill="white">
<path d="M522 116C522 116.04 521.951 116.06 521.923 116.032C521.905 116.014 521.876 116.014 521.859 116.032L483.032 154.859C483.014 154.876 483.014 154.905 483.032 154.923C483.061 154.951 483.04 155 483 155H15C12.2386 155 10 152.761 10 150V50.7439C10 49.4178 10.5268 48.1461 11.4645 47.2084L47.2084 11.4645C48.1461 10.5268 49.4178 10 50.7439 10H517C519.761 10 522 12.2386 522 15V116Z"/>
</mask>
<path d="M47.2084 11.4645L49.3297 13.5858L47.2084 11.4645ZM11.4645 47.2084L13.5858 49.3297L11.4645 47.2084ZM483.032 154.923L485.153 152.801L483.032 154.923ZM483.032 154.859L485.153 156.98L483.032 154.859ZM521.923 116.032L524.034 113.901L521.923 116.032ZM521.859 116.032L519.737 113.911L521.859 116.032ZM521.859 116.032L519.737 113.911L480.911 152.737L483.032 154.859L485.153 156.98L523.98 118.153L521.859 116.032ZM483 155V152H15V155V158H483V155ZM10 150H13V50.7439H10H7V150H10ZM11.4645 47.2084L13.5858 49.3297L49.3297 13.5858L47.2084 11.4645L45.0871 9.34315L9.34315 45.0871L11.4645 47.2084ZM50.7439 10V13H517V10V7H50.7439V10ZM522 15H519V116H522H525V15H522ZM517 10V13C518.105 13 519 13.8954 519 15H522H525C525 10.5817 521.418 7 517 7V10ZM47.2084 11.4645L49.3297 13.5858C49.7048 13.2107 50.2135 13 50.7439 13V10V7C48.6222 7 46.5874 7.84286 45.0871 9.34315L47.2084 11.4645ZM10 50.7439H13C13 50.2135 13.2107 49.7048 13.5858 49.3297L11.4645 47.2084L9.34315 45.0871C7.84285 46.5874 7 48.6222 7 50.7439H10ZM15 155V152C13.8954 152 13 151.105 13 150H10H7C7 154.418 10.5817 158 15 158V155ZM483.032 154.923L480.911 157.044C479.049 155.183 480.368 152 483 152V155V158C485.713 158 487.072 154.72 485.153 152.801L483.032 154.923ZM483.032 154.859L480.911 152.737C479.721 153.927 479.722 155.855 480.911 157.044L483.032 154.923L485.153 152.801C486.307 153.955 486.307 155.826 485.153 156.98L483.032 154.859ZM521.923 116.032L524.034 113.901C522.844 112.721 520.923 112.725 519.737 113.911L521.859 116.032L523.98 118.153C522.83 119.303 520.966 119.308 519.811 118.163L521.923 116.032ZM521.923 116.032L519.811 118.163C521.733 120.068 525 118.706 525 116H522H519C519 113.373 522.17 112.053 524.034 113.901L521.923 116.032Z" fill="url(#paint0_linear_27_128)" mask="url(#path-1-inside-1_27_128)"/>
<defs>
<linearGradient id="paint0_linear_27_128" x1="10" y1="82.5" x2="522" y2="82.5" gradientUnits="userSpaceOnUse">
<stop stop-color="#E6AB27"/>
<stop offset="1" stop-color="#C7C6C7"/>
</linearGradient>
</defs>
</svg>
