<svg width="220" height="48" viewBox="0 0 220 48" fill="none" xmlns="http://www.w3.org/2000/svg">
<g clip-path="url(#clip0_35_61)">
<path d="M25.275 6.76908H210.461C211.821 6.76908 212.923 7.87152 212.923 9.231V22.7251C212.923 23.378 212.663 24.0047 212.202 24.4663L196.159 40.5093C195.697 40.9709 195.07 41.231 194.418 41.231H9.23102C7.87155 41.231 6.7691 40.1286 6.7691 38.7691V25.2749C6.7691 24.6221 7.02825 23.9953 7.48981 23.5337L23.5338 7.48978C23.9954 7.02822 24.6222 6.76908 25.275 6.76908Z" fill="url(#paint0_linear_35_61)" stroke="url(#paint1_linear_35_61)" stroke-width="1.23077" stroke-linejoin="bevel"/>
<path d="M48.5386 29.9472C47.8013 29.9614 47.0215 29.9472 46.823 29.9472C46.3977 29.9188 46.3693 29.8905 46.2984 29.8196C46.1992 29.7203 46.1141 29.5218 46.1424 28.8413C46.1566 28.26 46.2275 28.2033 46.3126 28.1465C46.3977 28.0898 46.3835 28.0898 46.6529 28.0473C46.7947 28.0331 46.9081 28.0189 47.0073 27.9764C47.2058 27.9055 47.3051 27.7212 47.3618 27.551C47.4043 27.3667 47.376 26.4168 47.376 24.5736C47.3618 21.9647 47.4043 21.7946 47.2767 21.5536C47.1633 21.3267 46.9223 21.27 46.6812 21.2416C46.3551 21.1991 46.2842 21.1424 46.2133 21.0431C46.1283 20.9297 46.1283 20.9439 46.1283 20.235C46.1283 19.6962 46.1283 19.6395 46.1424 19.5827C46.2133 19.4126 46.3126 19.3275 46.4685 19.285C46.7663 19.2566 49.5878 19.2708 49.8147 19.285C50.0557 19.3417 50.1549 19.441 50.1975 19.6395C50.2258 19.7671 50.2117 20.7879 50.1975 20.9013C50.1266 21.1282 50.0415 21.2133 49.6445 21.2558C49.4035 21.2842 49.1625 21.3976 49.0632 21.6528C48.964 21.8797 48.9923 22.064 48.9923 24.7012C48.9923 27.3667 48.9214 27.5085 49.0916 27.7495C49.205 27.9339 49.4035 28.0048 49.6162 28.0331C49.9564 28.0756 49.999 28.1182 50.0841 28.2316C50.1549 28.3309 50.1833 28.3309 50.1975 28.8696C50.1975 29.3801 50.1691 29.6211 50.1266 29.7203C50.0982 29.7771 49.9848 29.8905 49.9139 29.9188C49.8572 29.933 49.8997 29.9472 48.5386 29.9472ZM53.5576 29.9614C53.3023 29.9614 53.0188 29.9472 52.9904 29.9472C52.9337 29.933 52.8628 29.9188 52.8486 29.9047C52.8061 29.8905 52.6927 29.7771 52.6643 29.7062L52.636 29.6211V24.687C52.636 19.8663 52.6501 19.6536 52.6643 19.6536C52.7068 19.4977 52.7919 19.4126 53.0471 19.3842C53.2173 19.3701 54.7485 19.3701 54.9045 19.3842C55.1597 19.4268 55.259 19.4977 55.3866 19.7954C55.4433 19.8947 55.9963 21.3267 56.6201 22.9572C57.2581 24.6161 57.8395 26.0765 57.9245 26.2608C57.9954 26.4451 58.123 26.9697 58.5058 26.8138C58.8887 26.6436 58.7469 26.3033 58.7611 22.9856C58.7611 20.2208 58.7752 19.682 58.7894 19.6111C58.8461 19.4835 58.9454 19.3984 59.1439 19.3559C59.2998 19.3417 60.0229 19.3417 60.1364 19.3701C60.3916 19.4268 60.4483 19.4835 60.4908 19.7387C60.505 19.9088 60.505 21.5536 60.505 24.7721C60.505 28.9547 60.4908 29.6069 60.4766 29.692C60.4341 29.7771 60.3065 29.8905 60.2356 29.9188C60.1647 29.9472 60.1222 29.9472 59.1013 29.9472C58.2081 29.9472 58.123 29.9472 58.0805 29.9188C57.9103 29.8621 57.8395 29.8054 57.7118 29.5077C57.6268 29.3092 55.6701 24.2616 55.3299 23.3542C55.2306 23.099 55.103 22.7587 54.9896 22.6169C54.947 22.5744 54.6918 22.4184 54.5359 22.5886C54.4508 22.6736 54.4366 22.7445 54.4224 22.8296C54.3657 23.0423 54.3799 23.9639 54.3799 26.3459L54.3657 29.6211L54.3374 29.7062C54.2948 29.7912 54.1956 29.8905 54.0963 29.9188C54.0538 29.933 53.9829 29.9472 53.5576 29.9614ZM65.3201 29.9472C64.5829 29.9614 63.803 29.9472 63.6045 29.9472C63.1792 29.9188 63.1508 29.8905 63.0799 29.8196C62.9807 29.7203 62.8956 29.5218 62.924 28.8413C62.9382 28.26 63.0091 28.2033 63.0941 28.1465C63.1792 28.0898 63.165 28.0898 63.4344 28.0473C63.5762 28.0331 63.6896 28.0189 63.7889 27.9764C63.9874 27.9055 64.0866 27.7212 64.1433 27.551C64.1859 27.3667 64.1575 26.4168 64.1575 24.5736C64.1433 21.9647 64.1859 21.7946 64.0583 21.5536C63.9448 21.3267 63.7038 21.27 63.4628 21.2416C63.1367 21.1991 63.0658 21.1424 62.9949 21.0431C62.9098 20.9297 62.9098 20.9439 62.9098 20.235C62.9098 19.6962 62.9098 19.6395 62.924 19.5827C62.9949 19.4126 63.0941 19.3275 63.2501 19.285C63.5478 19.2566 66.3693 19.2708 66.5962 19.285C66.8372 19.3417 66.9365 19.441 66.979 19.6395C67.0074 19.7671 66.9932 20.7879 66.979 20.9013C66.9081 21.1282 66.8231 21.2133 66.4261 21.2558C66.185 21.2842 65.944 21.3976 65.8447 21.6528C65.7455 21.8797 65.7739 22.064 65.7739 24.7012C65.7739 27.3667 65.703 27.5085 65.8731 27.7495C65.9865 27.9339 66.185 28.0048 66.3977 28.0331C66.738 28.0756 66.7805 28.1182 66.8656 28.2316C66.9365 28.3309 66.9648 28.3309 66.979 28.8696C66.979 29.3801 66.9507 29.6211 66.9081 29.7203C66.8798 29.7771 66.7663 29.8905 66.6955 29.9188C66.6387 29.933 66.6813 29.9472 65.3201 29.9472ZM73.8979 29.8763C73.8412 29.9188 73.5009 29.9897 73.2031 29.9614C73.1323 29.9472 73.0046 29.9188 72.9763 29.9047C72.9196 29.8905 72.8061 29.7629 72.7778 29.6778C72.7778 29.6778 72.7494 29.536 72.7353 25.6937C72.7211 21.9505 72.7778 21.7804 72.6644 21.5252C72.4942 21.1991 72.3241 21.2133 71.1189 21.1991C69.6727 21.1849 69.7436 21.1707 69.6018 21.0998C69.5167 21.0431 69.4884 21.0006 69.4459 20.873C69.4175 20.7879 69.4175 20.7312 69.4175 20.2491C69.4033 19.682 69.4175 19.6536 69.4884 19.5119C69.5026 19.4835 69.6018 19.3984 69.7011 19.3559L69.7861 19.3134H77.0455L77.1306 19.3417C77.2724 19.4126 77.3574 19.4835 77.3858 19.7812C77.4141 20.0081 77.4141 20.6036 77.3858 20.7596C77.3574 21.0006 77.2724 21.0998 77.088 21.1566C77.0172 21.1849 76.9888 21.1849 75.6986 21.1991C74.5643 21.2133 74.4934 21.1707 74.3091 21.3125C73.983 21.5394 74.0822 21.6528 74.068 25.6937V29.5927L74.0397 29.6778C73.9971 29.7771 73.9404 29.848 73.8979 29.8763ZM82.2401 29.9472C81.5029 29.9614 80.723 29.9472 80.5245 29.9472C80.0992 29.9188 80.0708 29.8905 79.9999 29.8196C79.9007 29.7203 79.8156 29.5218 79.844 28.8413C79.8582 28.26 79.9291 28.2033 80.0141 28.1465C80.0992 28.0898 80.085 28.0898 80.3544 28.0473C80.4962 28.0331 80.6096 28.0189 80.7089 27.9764C80.9074 27.9055 81.0066 27.7212 81.0633 27.551C81.1059 27.3667 81.0775 26.4168 81.0775 24.5736C81.0633 21.9647 81.1059 21.7946 80.9783 21.5536C80.8648 21.3267 80.6238 21.27 80.3828 21.2416C80.0567 21.1991 79.9858 21.1424 79.9149 21.0431C79.8298 20.9297 79.8298 20.9439 79.8298 20.235C79.8298 19.6962 79.8298 19.6395 79.844 19.5827C79.9149 19.4126 80.0141 19.3275 80.1701 19.285C80.4678 19.2566 83.2893 19.2708 83.5162 19.285C83.7572 19.3417 83.8565 19.441 83.899 19.6395C83.9274 19.7671 83.9132 20.7879 83.899 20.9013C83.8281 21.1282 83.7431 21.2133 83.3461 21.2558C83.105 21.2842 82.864 21.3976 82.7647 21.6528C82.6655 21.8797 82.6939 22.064 82.6939 24.7012C82.6939 27.3667 82.623 27.5085 82.7931 27.7495C82.9065 27.9339 83.105 28.0048 83.3177 28.0331C83.658 28.0756 83.7005 28.1182 83.7856 28.2316C83.8565 28.3309 83.8848 28.3309 83.899 28.8696C83.899 29.3801 83.8707 29.6211 83.8281 29.7203C83.7998 29.7771 83.6863 29.8905 83.6155 29.9188C83.5587 29.933 83.6013 29.9472 82.2401 29.9472ZM86.777 19.1857C86.8763 19.1857 87.3016 19.1716 87.9255 19.1716C89.7403 19.1716 93.3842 19.1999 93.7387 19.2141C94.0506 19.2283 94.1215 19.285 94.2065 19.3701C94.2349 19.3984 94.2916 19.4977 94.2916 19.5119C94.3058 19.5827 94.32 20.2066 94.32 24.4743C94.3058 27.3809 94.3058 29.3375 94.2916 29.5218C94.2349 29.8338 94.1782 29.9472 93.2708 29.9188C92.8312 29.9047 92.8029 29.8905 92.6753 29.8054C92.6469 29.7912 92.5618 29.6778 92.5335 29.4793C92.5335 29.4226 92.5193 28.9122 92.5193 28.4301C92.5193 27.5369 92.5477 27.3525 92.3775 27.1257C92.179 26.8705 92.0514 26.913 90.4492 26.9272C89.5702 26.9272 88.8471 26.9272 88.7195 26.9555C88.5352 26.9839 88.3225 27.069 88.2516 27.3242C88.1949 27.4943 88.2091 27.9055 88.2091 28.5152C88.1949 29.5218 88.1807 29.5502 88.1523 29.6353C88.0956 29.8338 88.0106 29.9188 87.6844 29.9472C87.3867 29.9756 86.9472 29.9756 86.777 29.9472C86.5643 29.9188 86.4651 29.8338 86.3942 29.6778L86.3659 29.5786L86.3375 27.6645C86.3375 26.5869 86.3233 24.3042 86.3375 22.6028V19.5544L86.3659 19.4693C86.4367 19.3134 86.5643 19.2141 86.777 19.1857ZM92.1932 21.2133C92.0514 21.1424 91.9522 21.1566 91.3141 21.1566C91.0873 21.1566 90.8037 21.1566 90.4351 21.1566C89.556 21.1566 88.8471 21.1566 88.7195 21.1849C88.5352 21.2133 88.3508 21.3125 88.2799 21.5252C88.1665 21.8088 88.1807 24.0348 88.2232 24.3892C88.2516 24.6161 88.3367 24.8288 88.5352 24.928C88.7195 25.0131 88.8329 24.9847 90.0806 24.9989C91.8387 25.0273 91.9805 25.0556 92.2074 24.928C92.3066 24.8713 92.3917 24.7862 92.4342 24.6728C92.5335 24.4601 92.5051 24.3892 92.5051 23.0706C92.4909 21.6244 92.5335 21.3976 92.1932 21.2133ZM101.216 29.8763C101.16 29.9188 100.819 29.9897 100.522 29.9614C100.451 29.9472 100.323 29.9188 100.295 29.9047C100.238 29.8905 100.125 29.7629 100.096 29.6778C100.096 29.6778 100.068 29.536 100.054 25.6937C100.04 21.9505 100.096 21.7804 99.9828 21.5252C99.8127 21.1991 99.6425 21.2133 98.4374 21.1991C96.9912 21.1849 97.0621 21.1707 96.9203 21.0998C96.8352 21.0431 96.8068 21.0006 96.7643 20.873C96.736 20.7879 96.736 20.7312 96.736 20.2491C96.7218 19.682 96.736 19.6536 96.8068 19.5119C96.821 19.4835 96.9203 19.3984 97.0195 19.3559L97.1046 19.3134H104.364L104.449 19.3417C104.591 19.4126 104.676 19.4835 104.704 19.7812C104.733 20.0081 104.733 20.6036 104.704 20.7596C104.676 21.0006 104.591 21.0998 104.407 21.1566C104.336 21.1849 104.307 21.1849 103.017 21.1991C101.883 21.2133 101.812 21.1707 101.628 21.3125C101.301 21.5394 101.401 21.6528 101.386 25.6937V29.5927L101.358 29.6778C101.316 29.7771 101.259 29.848 101.216 29.8763ZM113.202 29.9188C112.834 29.9472 107.942 29.9756 107.659 29.9614C107.375 29.933 107.276 29.848 107.205 29.6636C107.191 29.6353 107.177 29.5218 107.162 29.295C107.148 29.1249 107.134 27.069 107.148 24.3184C107.148 20.3909 107.162 19.682 107.177 19.5969C107.233 19.3984 107.333 19.3134 107.489 19.2566C107.517 19.2566 107.673 19.2283 110.012 19.2283C112.55 19.2425 113.273 19.285 113.344 19.2992C113.415 19.3275 113.543 19.4551 113.557 19.4977C113.599 19.5827 113.642 19.8238 113.628 20.235C113.628 20.8446 113.571 20.9722 113.486 21.0573C113.415 21.1282 113.358 21.1566 113.089 21.1849C112.976 21.1991 112.153 21.2133 111.303 21.2133C110.523 21.2133 109.8 21.2133 109.644 21.2274C109.502 21.2416 109.346 21.2274 109.204 21.3834C108.991 21.6244 109.034 21.9364 109.034 22.4043C109.034 22.943 109.02 23.0565 109.105 23.2408C109.147 23.3259 109.19 23.4109 109.275 23.4818C109.445 23.6236 109.516 23.5811 110.551 23.5952C111.288 23.5952 111.643 23.6236 111.685 23.6236C111.912 23.6945 111.997 23.7796 112.026 24.0631C112.054 24.2049 112.054 24.9706 112.026 25.1123C111.997 25.3959 111.912 25.481 111.685 25.5519C111.643 25.5519 111.288 25.5661 110.551 25.5802C109.516 25.5944 109.445 25.5519 109.261 25.6937C109.19 25.7646 109.147 25.8354 109.105 25.9347C109.034 26.1048 109.034 26.2183 109.034 26.7712C109.034 27.2391 108.991 27.5369 109.19 27.7779C109.332 27.948 109.502 27.9339 109.644 27.948C109.8 27.9622 110.523 27.9622 111.303 27.9622C113.004 27.9622 113.288 28.0048 113.373 28.0473C113.557 28.1324 113.656 28.2174 113.628 29.0965C113.614 29.4651 113.614 29.536 113.585 29.6211C113.529 29.7912 113.443 29.8763 113.202 29.9188ZM122.041 29.9472C121.644 29.9614 121.488 29.9472 121.446 29.933C121.205 29.8763 121.148 29.8196 121.106 29.5502C121.077 29.0965 121.077 20.2208 121.106 19.6536C121.148 19.4551 121.191 19.4268 121.347 19.3417C121.403 19.3275 121.347 19.3275 121.97 19.3275C122.523 19.3275 122.566 19.3275 122.623 19.3559C122.708 19.3842 122.807 19.4835 122.835 19.5686L122.878 19.6536V21.3692C122.892 23.0423 122.864 23.1274 122.963 23.3542C123.02 23.4676 123.105 23.5527 123.204 23.6094C123.402 23.7229 123.445 23.6803 125.075 23.6803C126.848 23.6661 126.975 23.7229 127.131 23.3542C127.231 23.1274 127.202 23.0281 127.216 21.3692V19.6536L127.259 19.5686C127.302 19.4268 127.401 19.3417 127.628 19.2992C127.784 19.285 128.648 19.3134 128.748 19.3275C128.875 19.3701 128.946 19.441 129.017 19.5969C129.031 19.682 129.031 20.3342 129.031 24.531C129.031 27.5227 129.017 29.3801 129.003 29.5502C128.96 29.7771 128.889 29.8621 128.762 29.9188C128.719 29.9472 128.748 29.9472 128.209 29.9614C127.642 29.9614 127.514 29.933 127.429 29.8905C127.372 29.8621 127.302 29.7771 127.273 29.7062C127.259 29.6636 127.245 29.6636 127.231 27.9764C127.216 27.0123 127.216 26.2608 127.202 26.1332C127.174 25.9063 127.018 25.7078 126.819 25.6369C126.649 25.5944 126.153 25.6086 125.033 25.5944C123.445 25.5944 123.388 25.5661 123.19 25.6653C123.105 25.722 123.02 25.7929 122.963 25.9063C122.849 26.1332 122.892 26.2041 122.878 27.8488C122.864 28.9405 122.864 29.5218 122.849 29.6211C122.807 29.7912 122.75 29.8621 122.594 29.9188C122.552 29.933 122.538 29.9472 122.041 29.9472ZM131.888 19.1857C131.987 19.1857 132.412 19.1716 133.036 19.1716C134.851 19.1716 138.495 19.1999 138.849 19.2141C139.161 19.2283 139.232 19.285 139.317 19.3701C139.346 19.3984 139.402 19.4977 139.402 19.5119C139.417 19.5827 139.431 20.2066 139.431 24.4743C139.417 27.3809 139.417 29.3375 139.402 29.5218C139.346 29.8338 139.289 29.9472 138.382 29.9188C137.942 29.9047 137.914 29.8905 137.786 29.8054C137.758 29.7912 137.673 29.6778 137.644 29.4793C137.644 29.4226 137.63 28.9122 137.63 28.4301C137.63 27.5369 137.658 27.3525 137.488 27.1257C137.29 26.8705 137.162 26.913 135.56 26.9272C134.681 26.9272 133.958 26.9272 133.83 26.9555C133.646 26.9839 133.433 27.069 133.362 27.3242C133.306 27.4943 133.32 27.9055 133.32 28.5152C133.306 29.5218 133.291 29.5502 133.263 29.6353C133.206 29.8338 133.121 29.9188 132.795 29.9472C132.497 29.9756 132.058 29.9756 131.888 29.9472C131.675 29.9188 131.576 29.8338 131.505 29.6778L131.477 29.5786L131.448 27.6645C131.448 26.5869 131.434 24.3042 131.448 22.6028V19.5544L131.477 19.4693C131.548 19.3134 131.675 19.2141 131.888 19.1857ZM137.304 21.2133C137.162 21.1424 137.063 21.1566 136.425 21.1566C136.198 21.1566 135.914 21.1566 135.546 21.1566C134.667 21.1566 133.958 21.1566 133.83 21.1849C133.646 21.2133 133.462 21.3125 133.391 21.5252C133.277 21.8088 133.291 24.0348 133.334 24.3892C133.362 24.6161 133.447 24.8288 133.646 24.928C133.83 25.0131 133.944 24.9847 135.191 24.9989C136.95 25.0273 137.091 25.0556 137.318 24.928C137.417 24.8713 137.502 24.7862 137.545 24.6728C137.644 24.4601 137.616 24.3892 137.616 23.0706C137.602 21.6244 137.644 21.3976 137.304 21.2133ZM147.858 29.9614C147.476 29.9756 142.584 29.9756 142.3 29.9614C142.017 29.9188 141.946 29.848 141.889 29.6778C141.875 29.5502 141.861 28.7279 141.847 24.7437C141.833 21.4685 141.833 19.8947 141.847 19.7387C141.889 19.526 141.946 19.4551 142.116 19.3842L142.201 19.3417L144.853 19.3275C146.384 19.3134 147.617 19.3275 147.731 19.3275C147.929 19.3417 147.972 19.3559 148.014 19.3842C148.114 19.4268 148.184 19.5119 148.227 19.6395C148.255 19.7387 148.255 19.7529 148.255 20.3342L148.241 20.9013L148.213 20.9864C148.128 21.1707 148.071 21.2133 147.802 21.2558C147.717 21.27 146.923 21.27 145.788 21.27C143.988 21.27 143.888 21.2274 143.718 21.5819C143.605 21.8229 143.647 21.8513 143.633 24.5594C143.633 26.0907 143.633 27.3384 143.647 27.4801C143.662 27.6786 143.747 27.8913 143.917 27.9906C144.101 28.104 144.158 28.0615 145.845 28.0756C148.199 28.0756 147.958 28.0756 148.099 28.2174C148.213 28.3167 148.213 28.2458 148.227 28.9689C148.241 29.536 148.227 29.536 148.199 29.6495C148.142 29.848 148.043 29.9188 147.858 29.9614ZM152 29.9614C151.447 29.9756 151.361 29.9756 151.191 29.9614C150.979 29.9472 150.894 29.9047 150.823 29.8196C150.723 29.7203 150.695 29.6636 150.681 29.295C150.667 29.1532 150.653 26.9272 150.667 24.29C150.667 20.4335 150.681 19.6395 150.695 19.5402C150.752 19.3701 150.766 19.3559 150.865 19.2708C150.936 19.2141 150.993 19.1999 151.503 19.1857C152.396 19.1574 152.453 19.2425 152.538 19.5119C152.538 19.5119 152.567 19.6536 152.567 21.2842C152.581 22.9572 152.538 23.0423 152.652 23.2691C152.808 23.5527 153.049 23.5669 153.517 23.5669C153.928 23.5669 154.041 23.5527 154.183 23.4676C154.282 23.4109 154.367 23.34 154.424 23.2408C154.509 23.1132 154.849 22.3475 155.275 21.3692C155.686 20.4476 156.055 19.6253 156.097 19.5402C156.168 19.4268 156.281 19.3134 156.352 19.2708C156.508 19.1999 157.699 19.1999 157.884 19.2708C158.04 19.3417 158.096 19.3984 157.969 19.7387C157.926 19.838 157.458 20.6887 156.948 21.5961C156.423 22.5177 156.012 23.34 155.969 23.4393C155.927 23.5102 155.856 23.6661 155.799 23.7654C155.601 24.1766 155.53 24.3467 155.53 24.5736C155.53 24.7721 155.572 24.9138 155.7 25.1832C155.785 25.3534 155.955 25.7078 156.083 25.9914C156.225 26.2608 156.537 26.8421 156.778 27.2675C157.004 27.6928 157.359 28.3167 157.543 28.6428C158.04 29.5218 157.997 29.4651 157.997 29.6495C157.997 29.7203 157.997 29.7629 157.997 29.7629C157.997 29.7629 157.997 29.7771 157.983 29.7771C157.926 29.8621 157.855 29.9472 157.104 29.933C156.537 29.933 156.48 29.9188 156.352 29.8621C156.196 29.7771 156.14 29.7345 155.771 28.8413C155.629 28.4868 155.473 28.1182 155.417 28.0048C155.374 27.9055 155.175 27.4376 154.991 26.9697C154.58 25.9914 154.523 25.8071 154.254 25.6653C154.098 25.5944 154.013 25.5802 153.517 25.5944C153.006 25.5944 152.808 25.6086 152.652 25.878C152.524 26.1048 152.581 26.2324 152.567 27.8346C152.567 29.2241 152.552 29.5644 152.538 29.6069C152.439 29.9047 152.411 29.9472 152 29.9614ZM165.014 27.9906V23.3259L173.96 25.6653L165.014 27.9906Z" fill="#010000"/>
</g>
<defs>
<linearGradient id="paint0_linear_35_61" x1="6.15387" y1="24" x2="213.538" y2="24" gradientUnits="userSpaceOnUse">
<stop stop-color="#E6AB27"/>
<stop offset="1" stop-color="#A1740F"/>
</linearGradient>
<linearGradient id="paint1_linear_35_61" x1="6.15387" y1="24" x2="213.538" y2="24" gradientUnits="userSpaceOnUse">
<stop stop-color="#AFAFAF"/>
<stop offset="1" stop-color="#C7C7C7"/>
</linearGradient>
<clipPath id="clip0_35_61">
<rect width="219.692" height="48" fill="white"/>
</clipPath>
</defs>
</svg>
