<svg width="220" height="48" viewBox="0 0 220 48" fill="none" xmlns="http://www.w3.org/2000/svg">
<g clip-path="url(#clip0_35_65)">
<path d="M25.275 6.76908H210.461C211.821 6.76908 212.923 7.87152 212.923 9.231V22.7251C212.923 23.378 212.663 24.0047 212.202 24.4663L196.159 40.5093C195.697 40.9709 195.07 41.231 194.418 41.231H9.23102C7.87155 41.231 6.7691 40.1286 6.7691 38.7691V25.2749C6.7691 24.6221 7.02825 23.9953 7.48981 23.5337L23.5338 7.48978C23.9954 7.02822 24.6222 6.76908 25.275 6.76908Z" fill="url(#paint0_linear_35_65)" stroke="url(#paint1_linear_35_65)" stroke-width="1.23077" stroke-linejoin="bevel"/>
<path d="M60.1459 30.6597C59.8198 30.7023 54.9708 30.6881 54.5596 30.6597C54.4037 30.6172 54.3044 30.5038 54.2477 30.3903C54.2193 30.1776 54.2052 28.6464 54.2052 24.6622C54.191 21.9825 54.2052 20.5505 54.2193 20.4087C54.2619 20.1251 54.3328 20.0542 54.4746 19.9975C54.5455 19.9692 54.5455 19.955 55.0275 19.955C55.6088 19.9408 55.6939 19.9692 55.8073 20.0259C55.9066 20.0684 55.9491 20.1251 55.9917 20.2811C56.0058 20.352 56.02 20.9049 56.02 24.2369C56.02 28.2636 55.9349 28.3344 56.176 28.5897C56.3887 28.7882 56.4312 28.7598 58.246 28.7598C60.5855 28.7882 60.3161 28.7882 60.4437 28.8874C60.5146 28.9583 60.5571 29.0292 60.5855 29.1993C60.5997 29.3269 60.5997 30.1209 60.5855 30.2485C60.5288 30.5463 60.4579 30.6172 60.1459 30.6597ZM69.0655 30.6881C68.6969 30.7164 63.8053 30.7448 63.5217 30.7306C63.2382 30.7023 63.1389 30.6172 63.068 30.4329C63.0539 30.4045 63.0397 30.2911 63.0255 30.0642C63.0113 29.8941 62.9971 27.8382 63.0113 25.0876C63.0113 21.1601 63.0255 20.4512 63.0397 20.3662C63.0964 20.1677 63.1956 20.0826 63.3516 20.0259C63.38 20.0259 63.5359 19.9975 65.8754 19.9975C68.4133 20.0117 69.1364 20.0542 69.2073 20.0684C69.2782 20.0968 69.4058 20.2244 69.42 20.2669C69.4625 20.352 69.5051 20.593 69.4909 21.0042C69.4909 21.6139 69.4342 21.7415 69.3491 21.8265C69.2782 21.8974 69.2215 21.9258 68.9521 21.9541C68.8387 21.9683 68.0163 21.9825 67.1656 21.9825C66.3858 21.9825 65.6627 21.9825 65.5067 21.9967C65.3649 22.0109 65.209 21.9967 65.0672 22.1526C64.8545 22.3937 64.8971 22.7056 64.8971 23.1735C64.8971 23.7123 64.8829 23.8257 64.968 24.01C65.0105 24.0951 65.053 24.1802 65.1381 24.2511C65.3082 24.3928 65.3791 24.3503 66.4142 24.3645C67.1514 24.3645 67.5059 24.3928 67.5484 24.3928C67.7753 24.4637 67.8604 24.5488 67.8887 24.8324C67.9171 24.9742 67.9171 25.7398 67.8887 25.8816C67.8604 26.1651 67.7753 26.2502 67.5484 26.3211C67.5059 26.3211 67.1514 26.3353 66.4142 26.3495C65.3791 26.3636 65.3082 26.3211 65.1239 26.4629C65.053 26.5338 65.0105 26.6047 64.968 26.7039C64.8971 26.8741 64.8971 26.9875 64.8971 27.5405C64.8971 28.0083 64.8545 28.3061 65.053 28.5471C65.1948 28.7173 65.3649 28.7031 65.5067 28.7173C65.6627 28.7314 66.3858 28.7314 67.1656 28.7314C68.867 28.7314 69.1506 28.774 69.2357 28.8165C69.42 28.9016 69.5192 28.9867 69.4909 29.8657C69.4767 30.2344 69.4767 30.3053 69.4483 30.3903C69.3916 30.5605 69.3066 30.6455 69.0655 30.6881ZM72.3401 19.955C72.4393 19.955 72.8647 19.9408 73.4885 19.9408C75.3034 19.9408 78.9472 19.9692 79.3017 19.9833C79.6136 19.9975 79.6845 20.0542 79.7696 20.1393C79.798 20.1677 79.8547 20.2669 79.8547 20.2811C79.8688 20.352 79.883 20.9758 79.883 25.2435C79.8688 28.1501 79.8688 30.1068 79.8547 30.2911C79.798 30.603 79.7412 30.7164 78.8338 30.6881C78.3943 30.6739 78.3659 30.6597 78.2383 30.5746C78.21 30.5605 78.1249 30.447 78.0965 30.2485C78.0965 30.1918 78.0824 29.6814 78.0824 29.1993C78.0824 28.3061 78.1107 28.1218 77.9406 27.8949C77.7421 27.6397 77.6145 27.6822 76.0123 27.6964C75.1332 27.6964 74.4101 27.6964 74.2825 27.7248C74.0982 27.7531 73.8855 27.8382 73.8146 28.0934C73.7579 28.2636 73.7721 28.6747 73.7721 29.2844C73.7579 30.2911 73.7438 30.3194 73.7154 30.4045C73.6587 30.603 73.5736 30.6881 73.2475 30.7164C72.9498 30.7448 72.5102 30.7448 72.3401 30.7164C72.1274 30.6881 72.0282 30.603 71.9573 30.447L71.9289 30.3478L71.9006 28.4337C71.9006 27.3561 71.8864 25.0734 71.9006 23.372V20.3236L71.9289 20.2385C71.9998 20.0826 72.1274 19.9833 72.3401 19.955ZM77.7563 21.9825C77.6145 21.9116 77.5152 21.9258 76.8772 21.9258C76.6503 21.9258 76.3668 21.9258 75.9981 21.9258C75.1191 21.9258 74.4101 21.9258 74.2825 21.9541C74.0982 21.9825 73.9139 22.0817 73.843 22.2944C73.7296 22.578 73.7438 24.804 73.7863 25.1585C73.8146 25.3853 73.8997 25.598 74.0982 25.6973C74.2825 25.7823 74.396 25.754 75.6437 25.7681C77.4018 25.7965 77.5436 25.8249 77.7704 25.6973C77.8697 25.6405 77.9548 25.5555 77.9973 25.442C78.0965 25.2294 78.0682 25.1585 78.0682 23.8399C78.054 22.3937 78.0965 22.1668 77.7563 21.9825ZM82.7385 20.0684C82.8094 20.0542 83.3057 20.0542 83.9863 20.0542C85.872 20.0542 89.6151 20.0826 89.8845 20.1109C90.1397 20.1535 90.2106 20.2385 90.2531 20.5079C90.2815 20.8057 90.2815 25.6547 90.2531 25.9241C90.2106 26.1651 90.1539 26.2219 89.9979 26.2928C89.9412 26.3069 89.927 26.3211 89.0054 26.3353C88.2398 26.3495 88.098 26.3353 87.942 26.4204C87.7294 26.5196 87.6585 26.789 87.7152 27.0017C87.7577 27.186 87.8003 27.2427 88.736 28.9867C89.4875 30.2485 89.5159 30.3336 89.53 30.447C89.5442 30.5888 89.5442 30.5605 89.4733 30.6172C89.3741 30.7164 89.4166 30.7164 88.7077 30.7164C88.098 30.7164 88.1122 30.7164 87.9846 30.6172C87.8995 30.5463 87.7577 30.3478 87.3324 29.4545C87.1197 29.0008 86.7652 28.2494 86.5526 27.8098C86.0705 26.8032 86.0563 26.7606 85.9287 26.6189C85.7302 26.392 85.5175 26.3778 85.0638 26.3778C84.6243 26.3778 84.3832 26.4062 84.2273 26.7039C84.128 26.9308 84.1564 26.9733 84.1422 28.6889V30.3903L84.0997 30.4754C84.0713 30.5746 84.0004 30.6597 83.887 30.7164C83.8019 30.7448 83.8445 30.7448 83.2632 30.7448C82.8378 30.759 82.6535 30.7448 82.6393 30.7306C82.455 30.6739 82.3983 30.6314 82.3274 30.4612L82.299 30.3903V25.4988C82.2848 22.025 82.299 20.6072 82.3132 20.437C82.3557 20.1818 82.455 20.1109 82.7385 20.0684ZM88.3816 22.3086C88.2398 22.0109 88.098 21.9967 86.9637 21.9967C86.7794 21.9967 86.5809 21.9967 86.3541 21.9967C84.7944 21.9967 84.7094 21.9683 84.5109 22.0534C84.3974 22.1101 84.284 22.2094 84.2273 22.3228C84.1564 22.5071 84.1564 22.6064 84.1564 23.216C84.1564 23.7973 84.1422 23.9108 84.2273 24.0809C84.284 24.166 84.3265 24.2369 84.3974 24.2936C84.5817 24.4496 84.6668 24.407 85.631 24.4212C87.2048 24.4354 87.9137 24.4779 88.1264 24.3787C88.2398 24.3219 88.3107 24.2511 88.3674 24.1518C88.4666 23.9675 88.4525 23.8682 88.4525 23.216C88.4525 22.6064 88.4666 22.4929 88.3816 22.3086ZM93.6191 30.7306C93.3639 30.7306 93.0803 30.7164 93.0519 30.7164C92.9952 30.7023 92.9243 30.6881 92.9102 30.6739C92.8676 30.6597 92.7542 30.5463 92.7258 30.4754L92.6975 30.3903V25.4562C92.6975 20.6355 92.7117 20.4229 92.7258 20.4229C92.7684 20.2669 92.8534 20.1818 93.1087 20.1535C93.2788 20.1393 94.8101 20.1393 94.966 20.1535C95.2212 20.196 95.3205 20.2669 95.4481 20.5647C95.5048 20.6639 96.0578 22.0959 96.6816 23.7264C97.3197 25.3853 97.901 26.8457 97.986 27.03C98.0569 27.2144 98.1845 27.739 98.5674 27.583C98.9502 27.4128 98.8084 27.0726 98.8226 23.7548C98.8226 20.99 98.8367 20.4512 98.8509 20.3803C98.9076 20.2527 99.0069 20.1677 99.2054 20.1251C99.3614 20.1109 100.084 20.1109 100.198 20.1393C100.453 20.196 100.51 20.2527 100.552 20.5079C100.567 20.6781 100.567 22.3228 100.567 25.5413C100.567 29.7239 100.552 30.3761 100.538 30.4612C100.496 30.5463 100.368 30.6597 100.297 30.6881C100.226 30.7164 100.184 30.7164 99.1629 30.7164C98.2696 30.7164 98.1845 30.7164 98.142 30.6881C97.9719 30.6314 97.901 30.5746 97.7734 30.2769C97.6883 30.0784 95.7317 25.0309 95.3914 24.1234C95.2921 23.8682 95.1645 23.528 95.0511 23.3862C95.0086 23.3436 94.7534 23.1877 94.5974 23.3578C94.5123 23.4429 94.4981 23.5138 94.484 23.5988C94.4272 23.8115 94.4414 24.7331 94.4414 27.1151L94.4272 30.3903L94.3989 30.4754C94.3564 30.5605 94.2571 30.6597 94.1579 30.6881C94.1153 30.7023 94.0444 30.7164 93.6191 30.7306ZM109.542 30.6881C109.372 30.7164 108.422 30.7164 108.337 30.7023C108.153 30.6455 108.11 30.603 108.054 30.4045C108.039 30.362 108.025 30.1209 108.025 25.4137V20.5505L108.054 20.4229C108.096 20.2811 108.181 20.196 108.28 20.1677C108.337 20.1535 108.862 20.1393 111.825 20.1251C113.909 20.1251 115.341 20.1393 115.469 20.1393C115.767 20.1818 115.823 20.2527 115.88 20.4087C115.894 20.4654 115.908 21.0609 115.923 25.3428C115.923 28.8165 115.923 30.2202 115.908 30.362C115.866 30.5888 115.781 30.6739 115.554 30.7164C115.497 30.7164 115.256 30.7306 114.944 30.7306C114.505 30.7164 114.491 30.7023 114.434 30.6881C114.292 30.6314 114.292 30.6314 114.221 30.5038L114.179 30.4045L114.164 22.4646L114.079 22.3086C113.994 22.0959 113.796 22.0109 113.597 21.9825C113.385 21.9541 113.087 21.9541 112.903 22.0534C112.789 22.1101 112.732 22.181 112.69 22.2802L112.605 22.422L112.591 26.4629C112.576 30.2911 112.562 30.447 112.562 30.447C112.52 30.5463 112.435 30.6455 112.364 30.6881C112.293 30.7164 112.321 30.7164 111.953 30.7164C111.513 30.7164 111.527 30.7023 111.442 30.6172C111.385 30.5605 111.343 30.4896 111.315 30.2769C111.315 30.1493 111.3 28.6747 111.3 26.3069C111.3 22.7481 111.343 22.578 111.23 22.3228C111.102 22.0392 110.861 21.9967 110.549 21.9967C110.322 21.9967 110.194 21.9967 110.067 22.0817C109.698 22.2661 109.812 22.4646 109.797 26.4487C109.797 30.6597 109.769 30.4329 109.727 30.5321C109.712 30.5605 109.599 30.6597 109.542 30.6881ZM122.197 20.1535C122.821 20.1535 123.36 20.1535 123.8 20.1535C125.118 20.1535 125.77 20.1677 125.87 20.1677C126.082 20.2102 126.153 20.2811 126.196 20.4938C126.21 20.749 126.224 22.6914 126.224 25.4704L126.238 30.3336L126.196 30.447C126.153 30.5605 126.068 30.6597 125.969 30.6881V30.7023C125.898 30.7023 125.331 30.7164 122.353 30.7164C119.631 30.7306 118.78 30.7164 118.695 30.7023C118.483 30.6597 118.426 30.603 118.369 30.4754C118.355 30.447 118.341 30.3761 118.327 30.1635C118.313 30.0359 118.313 27.7531 118.327 25.1585L118.341 20.4938L118.383 20.4087C118.412 20.2953 118.468 20.2385 118.582 20.196L118.667 20.1677L122.197 20.1535ZM124.14 22.0676C123.941 21.9541 123.885 21.9967 122.268 21.9967C120.638 21.9967 120.595 21.9541 120.397 22.0676C120.298 22.1243 120.212 22.2377 120.17 22.3228C120.042 22.5922 120.085 22.6205 120.085 25.357C120.085 27.342 120.071 28.1501 120.113 28.3486C120.127 28.4479 120.142 28.5613 120.241 28.6606C120.468 28.8874 120.539 28.8591 122.297 28.8449C123.87 28.8449 123.984 28.9016 124.197 28.7598C124.282 28.6889 124.324 28.6322 124.367 28.5329C124.494 28.2919 124.438 28.1501 124.438 25.4137C124.438 22.5355 124.509 22.5071 124.353 22.2661C124.282 22.1668 124.225 22.1243 124.14 22.0676ZM129.082 20.0684C129.153 20.0542 129.649 20.0542 130.329 20.0542C132.215 20.0542 135.958 20.0826 136.228 20.1109C136.483 20.1535 136.554 20.2385 136.596 20.5079C136.625 20.8057 136.625 25.6547 136.596 25.9241C136.554 26.1651 136.497 26.2219 136.341 26.2928C136.284 26.3069 136.27 26.3211 135.349 26.3353C134.583 26.3495 134.441 26.3353 134.285 26.4204C134.072 26.5196 134.002 26.789 134.058 27.0017C134.101 27.186 134.143 27.2427 135.079 28.9867C135.831 30.2485 135.859 30.3336 135.873 30.447C135.887 30.5888 135.887 30.5605 135.816 30.6172C135.717 30.7164 135.76 30.7164 135.051 30.7164C134.441 30.7164 134.455 30.7164 134.328 30.6172C134.243 30.5463 134.101 30.3478 133.675 29.4545C133.463 29.0008 133.108 28.2494 132.896 27.8098C132.414 26.8032 132.399 26.7606 132.272 26.6189C132.073 26.392 131.861 26.3778 131.407 26.3778C130.967 26.3778 130.726 26.4062 130.57 26.7039C130.471 26.9308 130.499 26.9733 130.485 28.6889V30.3903L130.443 30.4754C130.414 30.5746 130.344 30.6597 130.23 30.7164C130.145 30.7448 130.188 30.7448 129.606 30.7448C129.181 30.759 128.997 30.7448 128.982 30.7306C128.798 30.6739 128.741 30.6314 128.67 30.4612L128.642 30.3903V25.4988C128.628 22.025 128.642 20.6072 128.656 20.437C128.699 20.1818 128.798 20.1109 129.082 20.0684ZM134.725 22.3086C134.583 22.0109 134.441 21.9967 133.307 21.9967C133.122 21.9967 132.924 21.9967 132.697 21.9967C131.137 21.9967 131.052 21.9683 130.854 22.0534C130.741 22.1101 130.627 22.2094 130.57 22.3228C130.499 22.5071 130.499 22.6064 130.499 23.216C130.499 23.7973 130.485 23.9108 130.57 24.0809C130.627 24.166 130.67 24.2369 130.741 24.2936C130.925 24.4496 131.01 24.407 131.974 24.4212C133.548 24.4354 134.257 24.4779 134.469 24.3787C134.583 24.3219 134.654 24.2511 134.71 24.1518C134.81 23.9675 134.796 23.8682 134.796 23.216C134.796 22.6064 134.81 22.4929 134.725 22.3086ZM145.095 30.6881C144.726 30.7164 139.835 30.7448 139.551 30.7306C139.267 30.7023 139.168 30.6172 139.097 30.4329C139.083 30.4045 139.069 30.2911 139.055 30.0642C139.041 29.8941 139.026 27.8382 139.041 25.0876C139.041 21.1601 139.055 20.4512 139.069 20.3662C139.126 20.1677 139.225 20.0826 139.381 20.0259C139.409 20.0259 139.565 19.9975 141.905 19.9975C144.443 20.0117 145.166 20.0542 145.237 20.0684C145.307 20.0968 145.435 20.2244 145.449 20.2669C145.492 20.352 145.534 20.593 145.52 21.0042C145.52 21.6139 145.463 21.7415 145.378 21.8265C145.307 21.8974 145.251 21.9258 144.981 21.9541C144.868 21.9683 144.046 21.9825 143.195 21.9825C142.415 21.9825 141.692 21.9825 141.536 21.9967C141.394 22.0109 141.238 21.9967 141.096 22.1526C140.884 22.3937 140.926 22.7056 140.926 23.1735C140.926 23.7123 140.912 23.8257 140.997 24.01C141.04 24.0951 141.082 24.1802 141.167 24.2511C141.337 24.3928 141.408 24.3503 142.443 24.3645C143.181 24.3645 143.535 24.3928 143.578 24.3928C143.805 24.4637 143.89 24.5488 143.918 24.8324C143.946 24.9742 143.946 25.7398 143.918 25.8816C143.89 26.1651 143.805 26.2502 143.578 26.3211C143.535 26.3211 143.181 26.3353 142.443 26.3495C141.408 26.3636 141.337 26.3211 141.153 26.4629C141.082 26.5338 141.04 26.6047 140.997 26.7039C140.926 26.8741 140.926 26.9875 140.926 27.5405C140.926 28.0083 140.884 28.3061 141.082 28.5471C141.224 28.7173 141.394 28.7031 141.536 28.7173C141.692 28.7314 142.415 28.7314 143.195 28.7314C144.896 28.7314 145.18 28.774 145.265 28.8165C145.449 28.9016 145.548 28.9867 145.52 29.8657C145.506 30.2344 145.506 30.3053 145.478 30.3903C145.421 30.5605 145.336 30.6455 145.095 30.6881ZM157.555 28.7598V24.0951L166.502 26.4345L157.555 28.7598Z" fill="#010000"/>
</g>
<defs>
<linearGradient id="paint0_linear_35_65" x1="6.15387" y1="24" x2="213.538" y2="24" gradientUnits="userSpaceOnUse">
<stop stop-color="#E6AB27"/>
<stop offset="1" stop-color="#A1740F"/>
</linearGradient>
<linearGradient id="paint1_linear_35_65" x1="6.15387" y1="24" x2="213.538" y2="24" gradientUnits="userSpaceOnUse">
<stop stop-color="#AFAFAF"/>
<stop offset="1" stop-color="#C7C7C7"/>
</linearGradient>
<clipPath id="clip0_35_65">
<rect width="219.692" height="48" fill="white"/>
</clipPath>
</defs>
</svg>
